# xmcd
#
# Track frame offsets:
#	150
#	16757
#	33952
#	52870
#	66120
#	85670
#	97980
#	118020
#	135002
#	153365
#	169972
#	183707
#	200155
#	213337
#	233095
#
# Disc length: 3417 seconds
# Revision: 4
# Processed by: cddbd v1.5.2PL0 Copyright (c) Steve Scherf et al.
# Submitted via: dBpowerAMP V12.0
#
DISCID=bb0d570f
DTITLE=Brooks and Dunn - Red Dirt Road (2003 EU)
DYEAR=2003
DGENRE=Country
TTITLE0=You Can't Take The Honky Tonk Out Of The Girl
TTITLE1=Caroline
TTITLE2=When We Were Kings
TTITLE3=That's What She Gets For Loving Me
TTITLE4=Red Dirt Road
TTITLE5=Feels Good Don't It
TTITLE6=I Used To Know This Song By Heart
TTITLE7=Believer
TTITLE8=Memory Town
TTITLE9=She Was Born To Run
TTITLE10=Till My Dyin' Day
TTITLE11=My Baby's Everything I Love
TTITLE12=Good Day To Be Me
TTITLE13=Good Cowboy
TTITLE14=Holy War
EXTD=
EXTT0=
EXTT1=
EXTT2=
EXTT3=
EXTT4=
EXTT5=
EXTT6=
EXTT7=
EXTT8=
EXTT9=
EXTT10=
EXTT11=
EXTT12=
EXTT13=
EXTT14=
PLAYORDER=
